<svg xmlns="http://www.w3.org/2000/svg" xmlns:xlink="http://www.w3.org/1999/xlink" width="70" height="70" viewBox="0 0 70 70"><defs><path id="a" d="M912 1057c19.33 0 35 15.67 35 35s-15.67 35-35 35-35-15.67-35-35 15.67-35 35-35z"/><path id="b" d="M930 1108.127a1.876 1.876 0 0 1-1.879 1.873H896.88a1.876 1.876 0 0 1-1.88-1.873v-31.254c0-1.035.842-1.873 1.88-1.873h31.242c1.038 0 1.88.838 1.88 1.873zm-17.46-4.058c6.4 0 11.607-5.19 11.607-11.57 0-6.378-5.207-11.568-11.608-11.568-6.4 0-11.608 5.19-11.608 11.569 0 6.38 5.207 11.57 11.608 11.57zm-4.777-14.418a2.853 2.853 0 0 1 2.858 2.849 2.853 2.853 0 0 1-2.858 2.849 2.853 2.853 0 0 1-2.858-2.85 2.853 2.853 0 0 1 2.858-2.848zm9.63 0a2.853 2.853 0 0 1 2.859 2.849 2.853 2.853 0 0 1-2.858 2.849 2.853 2.853 0 0 1-2.858-2.85 2.853 2.853 0 0 1 2.858-2.847z"/></defs><use fill="#4c7391" xlink:href="#a" transform="translate(-877 -1057)"/><use fill="#fff" xlink:href="#b" transform="translate(-877 -1057)"/></svg>