<svg xmlns="http://www.w3.org/2000/svg" xmlns:xlink="http://www.w3.org/1999/xlink" width="70" height="70" viewBox="0 0 70 70"><defs><path id="a" d="M820 1057c19.33 0 35 15.67 35 35s-15.67 35-35 35-35-15.67-35-35 15.67-35 35-35z"/><path id="b" d="M821.7 1093.7h9.26v9.26h-9.26zm-11.659-11.66h9.259v9.26h-9.259zm11.66 0h9.259v9.26h-9.26zm14.299-4.182v29.285a.857.857 0 0 1-.857.857h-29.285a.858.858 0 0 1-.858-.857v-29.285c0-.474.385-.858.858-.858h29.285c.473 0 .857.384.857.858zm-2.64 1.782h-25.72v25.72h25.72zm-23.319 14.06h9.259v9.26h-9.259z"/></defs><use fill="#4c7391" xlink:href="#a" transform="translate(-785 -1057)"/><use fill="#fff" xlink:href="#b" transform="translate(-785 -1057)"/></svg>