<svg xmlns="http://www.w3.org/2000/svg" xmlns:xlink="http://www.w3.org/1999/xlink" width="70" height="70" viewBox="0 0 70 70"><defs><path id="a" d="M728 1057c19.33 0 35 15.67 35 35s-15.67 35-35 35-35-15.67-35-35 15.67-35 35-35z"/><path id="b" d="M741 1073v38l-26-.046V1073zm-2.445 35.49v-4.508h-.836v3.675h-19.438v-31.316h19.438v3.675h.836v-4.51h-21.11v32.947zm-.836-8.405h.836v-16.172h-.836zm-16.701-9.401c-.71 0-1.284.588-1.284 1.315 0 .726.575 1.315 1.284 1.315.709 0 1.284-.589 1.284-1.315 0-.727-.575-1.315-1.284-1.315z"/></defs><use fill="#4c7391" xlink:href="#a" transform="translate(-693 -1057)"/><use fill="#fff" xlink:href="#b" transform="translate(-693 -1057)"/></svg>