<svg xmlns="http://www.w3.org/2000/svg" xmlns:xlink="http://www.w3.org/1999/xlink" width="46" height="57" viewBox="0 0 46 57"><defs><path id="a" d="M465.159 4759.366l-8.963-14.528 9.048-14.666a.958.958 0 0 0 .025-.962.934.934 0 0 0-.819-.488h-42.115v-1.897a.94.94 0 0 0-.936-.947.94.94 0 0 0-.936.947v54.988a.94.94 0 0 0 .936.948.941.941 0 0 0 .936-.948v-20.857h42.135a.941.941 0 0 0 .935-.949.956.956 0 0 0-.246-.641z"/></defs><use fill="#4c7391" xlink:href="#a" transform="translate(-420 -4726)"/></svg>