<svg xmlns="http://www.w3.org/2000/svg" xmlns:xlink="http://www.w3.org/1999/xlink" width="58" height="58" viewBox="0 0 58 58"><defs><path id="a" d="M550.992 2760.16v1.02H530.63l-3.42 17.6h-.651a.858.858 0 0 1-.858-.858v-21.054c0-.472.385-.856.858-.856h6.18l3.627 3.292h13.77c.471 0 .856.385.856.857zM568 2766c0 16.015-12.985 29-29 29-16.016 0-29-12.986-29-29 0-16.016 12.984-29 29-29 16.015 0 29 12.984 29 29zm-10.538-4.82H554v-1.018a3.87 3.87 0 0 0-3.864-3.867h-12.608l-3.627-3.292h-7.342a3.87 3.87 0 0 0-3.866 3.865v21.055a3.87 3.87 0 0 0 3.865 3.865l21.793.002 1.785-.002c.02 0 .038-.005.058-.006a3.865 3.865 0 0 0 3.74-3.656z"/></defs><use fill="#4c7391" xlink:href="#a" transform="translate(-510 -2737)"/></svg>