<svg xmlns="http://www.w3.org/2000/svg" xmlns:xlink="http://www.w3.org/1999/xlink" width="41" height="30" viewBox="0 0 41 30"><defs><path id="a" d="M69.905 1433.206v20.236a4.346 4.346 0 0 1-4.343 4.341H33.348a4.346 4.346 0 0 1-4.343-4.34v-20.237a4.346 4.346 0 0 1 4.343-4.34h32.214a4.346 4.346 0 0 1 4.343 4.34zm-3.682 20.236v-17.56l-14.776 11.087a1.414 1.414 0 0 1-.927.352h-2.13a1.41 1.41 0 0 1-.927-.352l-14.775-11.088v17.561c0 .272.309.51.66.51h32.215c.352 0 .66-.238.66-.51zm-2.339-20.745H35.025l14.43 10.82z"/></defs><use fill="#4c7391" xlink:href="#a" transform="translate(-29 -1428)"/></svg>