<svg xmlns="http://www.w3.org/2000/svg" xmlns:xlink="http://www.w3.org/1999/xlink" width="58" height="58" viewBox="0 0 58 58"><defs><path id="a" d="M1135 2766c0 16.015-12.985 29-29 29-16.016 0-29-12.986-29-29 0-16.016 12.984-29 29-29s29 12.983 29 29zm-50.125 10.923h8.856c1.738-2.268 4.147-3.402 5.885-4.217.33-.155.715-.336 1.062-.514-2.156-1.945-3.468-5.006-3.468-8.336 0-4.838 2.776-8.906 6.528-10.099-.934-3.278-3.437-5.63-6.387-5.63-3.746 0-6.784 3.787-6.784 8.457 0 3.545 1.751 6.575 4.232 7.833l-.202 1.08c-1.766 2.369-9.722 2.367-9.722 11.426zm21.213 7.271h12.387c0-8.906-7.692-9.053-9.629-11.307l-.23-1.228c2.448-1.277 4.168-4.29 4.168-7.803 0-4.67-3.038-8.457-6.784-8.457-3.747 0-6.784 3.787-6.784 8.457 0 3.544 1.75 6.575 4.231 7.833l-.202 1.08c-1.765 2.368-9.721 2.366-9.721 11.425h12.564zm12.18-7.27h8.858c0-8.908-7.692-9.055-9.629-11.309l-.23-1.228c2.448-1.277 4.168-4.288 4.168-7.803 0-4.67-3.038-8.456-6.784-8.456-2.951 0-5.454 2.352-6.388 5.63 3.752 1.193 6.527 5.261 6.527 10.098 0 3.322-1.314 6.39-3.468 8.338.34.174.719.352 1.06.512 1.738.816 4.147 1.949 5.886 4.217z"/></defs><use fill="#fff" xlink:href="#a" transform="translate(-1077 -2737)"/></svg>