<svg xmlns="http://www.w3.org/2000/svg" xmlns:xlink="http://www.w3.org/1999/xlink" width="46" height="60" viewBox="0 0 46 60"><defs><path id="a" d="M73.54 963.582c-.7 1.989-1.823 3.932-3.332 5.766l-16.694 20.577a1.951 1.951 0 0 1-1.514.733 1.951 1.951 0 0 1-1.514-.733l-16.699-20.582c-1.502-1.823-2.626-3.771-3.333-5.773-2.643-7.335-1.646-15.64 2.673-22.197 4.341-6.591 11.22-10.372 18.873-10.372 7.653 0 14.532 3.78 18.873 10.372 4.319 6.557 5.316 14.862 2.668 22.209zm-5.938-19.837c-3.588-5.448-9.275-8.573-15.602-8.573s-12.015 3.125-15.602 8.573c-3.577 5.43-4.406 12.295-2.22 18.362.546 1.55 1.428 3.065 2.627 4.52L52 985.355l15.186-18.715a.048.048 0 0 1 .01-.01c1.198-1.457 2.08-2.972 2.622-4.508 2.191-6.08 1.36-12.945-2.216-18.376zm-4.469 11.312c0 6.445-4.994 11.682-11.133 11.682-6.14 0-11.133-5.237-11.133-11.682 0-6.441 4.995-11.68 11.133-11.68 6.138 0 11.133 5.24 11.133 11.68zm-3.976 0c0-4.14-3.21-7.51-7.157-7.51-3.946 0-7.157 3.37-7.157 7.51 0 4.141 3.21 7.51 7.157 7.51 3.946 0 7.157-3.369 7.157-7.51z"/></defs><use fill="#4c7391" xlink:href="#a" transform="translate(-29 -931)"/></svg>