<svg xmlns="http://www.w3.org/2000/svg" xmlns:xlink="http://www.w3.org/1999/xlink" width="70" height="39" viewBox="0 0 70 39"><defs><path id="a" d="M569.74 7762.132h-.945a.796.796 0 0 1-.795-.792v-2.407c0-.435.358-.792.795-.792h3.155a6.503 6.503 0 0 0-2.21 3.991zm11.317 0c.064.31.096.618.096.943 0 2.716-2.21 4.925-4.943 4.925-2.726 0-4.944-2.21-4.944-4.925 0-.325.032-.634.096-.943a4.934 4.934 0 0 1 4.848-3.99 4.927 4.927 0 0 1 4.847 3.99zm-2.376.943a2.32 2.32 0 0 0-.19-.943 2.455 2.455 0 0 0-2.281-1.52 2.456 2.456 0 0 0-2.281 1.52c-.127.285-.191.61-.191.943a2.47 2.47 0 0 0 2.472 2.462 2.47 2.47 0 0 0 2.471-2.462zm-8.724-8.093v-23.607a2.38 2.38 0 0 1 2.384-2.375h37.988a2.38 2.38 0 0 1 2.384 2.375v23.607a.796.796 0 0 1-.795.792h-41.167a.796.796 0 0 1-.794-.792zm36.986-2.665c0 .375.306.68.683.68h.022a.682.682 0 0 0 .683-.68v-19.587a.681.681 0 0 0-.683-.68h-.022a.682.682 0 0 0-.683.68zm-6.423 0c0 .375.305.68.683.68h.02a.682.682 0 0 0 .684-.68v-19.587a.681.681 0 0 0-.683-.68h-.021a.681.681 0 0 0-.683.68zm-6.424 0c0 .375.306.68.683.68h.021a.682.682 0 0 0 .683-.68v-19.587a.682.682 0 0 0-.683-.68h-.021a.682.682 0 0 0-.683.68zm-6.424 0c0 .375.306.68.683.68h.021a.682.682 0 0 0 .684-.68v-19.587a.682.682 0 0 0-.684-.68h-.02a.681.681 0 0 0-.684.68zm-6.424 0c0 .375.306.68.683.68h.022a.682.682 0 0 0 .683-.68v-19.587a.681.681 0 0 0-.683-.68h-.022a.682.682 0 0 0-.683.68zm-6.423 0c0 .375.305.68.683.68h.02a.682.682 0 0 0 .684-.68v-19.587a.682.682 0 0 0-.683-.68h-.021a.681.681 0 0 0-.683.68zm18.432 9.815c.063.31.095.618.095.943 0 2.716-2.21 4.925-4.943 4.925-2.726 0-4.944-2.21-4.944-4.925 0-.325.032-.634.096-.943a4.934 4.934 0 0 1 4.848-3.99 4.927 4.927 0 0 1 4.848 3.99zm-2.377.943c0-.333-.063-.658-.182-.943a2.475 2.475 0 0 0-2.29-1.52 2.475 2.475 0 0 0-2.288 1.52 2.47 2.47 0 0 0 2.289 3.405 2.47 2.47 0 0 0 2.471-2.462zm-8.567-2.329a6.545 6.545 0 0 0-1.844-2.605h3.68a6.45 6.45 0 0 0-1.836 2.605zm55.687-1.813v2.408a.796.796 0 0 1-.795.791h-6.437c-.461-3.143-3.171-5.575-6.453-5.575a6.54 6.54 0 0 0-6.461 5.575h-22.976a6.504 6.504 0 0 0-2.21-3.99h22.317v-22.649c0-.87.707-1.583 1.59-1.583h7.501a6.368 6.368 0 0 1 5.27 2.787l4.84 7.143a6.328 6.328 0 0 1 1.088 3.54v10.761h1.931c.437 0 .795.357.795.792zm-8.059-14.911l-3.87-5.48a.807.807 0 0 0-.652-.333h-6.032a.796.796 0 0 0-.794.792v5.472a.79.79 0 0 0 .794.792h9.903a.79.79 0 0 0 .651-1.243zm-.683 19.053c0 2.716-2.217 4.925-4.943 4.925-2.734 0-4.944-2.21-4.944-4.925a4.936 4.936 0 0 1 4.944-4.934 4.941 4.941 0 0 1 4.943 4.934zm-2.472 0a2.465 2.465 0 0 0-2.471-2.463 2.465 2.465 0 0 0-2.472 2.463 2.47 2.47 0 0 0 2.472 2.462 2.47 2.47 0 0 0 2.471-2.462z"/></defs><use fill="#4c7391" xlink:href="#a" transform="translate(-568 -7729)"/></svg>