<svg xmlns="http://www.w3.org/2000/svg" xmlns:xlink="http://www.w3.org/1999/xlink" width="51" height="51" viewBox="0 0 51 51"><defs><path id="w40wa" d="M1094.918 1879.678h15.873v1.764h-15.873zm0-3.912h15.873v1.763h-15.873zm0-3.912h15.873v1.763h-15.873zm0 11.961h15.873v1.764h-15.873zM1131 1874.5c0 14.083-11.417 25.5-25.5 25.5s-25.5-11.417-25.5-25.5 11.417-25.5 25.5-25.5 25.5 11.417 25.5 25.5zm-16.72-6.122v-3.097c0-1.712-1.387-3.1-3.098-3.1h-16.655a3.098 3.098 0 0 0-3.098 3.099v22.851a3.098 3.098 0 0 0 3.098 3.098h16.655a3.098 3.098 0 0 0 3.098-3.098zm3.968-3.968v-3.098c0-1.711-1.387-3.1-3.097-3.1h-16.655a3.1 3.1 0 0 0-2.966 2.206h15.652a4.867 4.867 0 0 1 4.861 4.862v21.848a3.099 3.099 0 0 0 2.205-2.967zm-23.33 3.531h15.873v1.764h-15.873z"/></defs><g><g transform="translate(-1080 -1849)"><use  xlink:href="#w40wa"/></g></g></svg>