<svg xmlns="http://www.w3.org/2000/svg" xmlns:xlink="http://www.w3.org/1999/xlink" width="19" height="20"
     viewBox="0 0 19 20">
        <g transform="translate(-905 -1183)">
            <path id="4d8xa"
                  d="M924 1195.744v5.907a1.33 1.33 0 0 1-1.32 1.342H906.32c-.731 0-1.32-.6-1.32-1.342v-5.907h2.636v4.566h13.725v-4.566zm-9.742-.453l-3.776-4.643s-.574-.552.049-.552h2.128v-.944-5.815s-.085-.33.403-.33h2.995c.351 0 .343.278.343.278V1189.957h1.964c.756 0 .187.578.187.578s-3.213 4.34-3.661 4.795c-.323.33-.632-.039-.632-.039z"/>
        </g>
</svg>