<svg xmlns="http://www.w3.org/2000/svg" xmlns:xlink="http://www.w3.org/1999/xlink" width="43" height="43" viewBox="0 0 43 43"><defs><path id="jpvja" d="M308.507 10043.13h5.377v5.377h-5.377v5.378h-5.377v-5.378h-5.377v-5.376h5.377v-5.378h5.377zm20.51 25.887a3.31 3.31 0 0 1-4.68 0l-7.765-7.766a18.72 18.72 0 0 1-10.754 3.388c-10.394 0-18.82-8.426-18.82-18.82s8.426-18.82 18.82-18.82c10.395 0 18.82 8.426 18.82 18.82 0 4-1.259 7.702-3.387 10.755l7.767 7.764a3.309 3.309 0 0 1 0 4.68zm-9.756-23.198c0-7.424-6.02-13.444-13.443-13.444s-13.442 6.02-13.442 13.444c0 7.424 6.02 13.443 13.442 13.443 7.424 0 13.443-6.02 13.443-13.443z"/></defs><g><g opacity=".4" transform="translate(-287 -10027)"><use  xlink:href="#jpvja"/></g></g></svg>