<svg xmlns="http://www.w3.org/2000/svg" xmlns:xlink="http://www.w3.org/1999/xlink" width="68" height="68" viewBox="0 0 68 68"><defs><path id="9rbfa" d="M718 3889c0 18.747-15.253 34-34 34s-34-15.253-34-34 15.253-34 34-34 34 15.253 34 34zm-3.397 0c0-16.875-13.728-30.603-30.603-30.603s-30.603 13.728-30.603 30.603 13.728 30.603 30.603 30.603 30.603-13.728 30.603-30.603zm-14.144 0c0 .444-.166.874-.499 1.206l-9.554 9.554a1.69 1.69 0 0 1-2.399 0 1.69 1.69 0 0 1 0-2.399l6.656-6.656h-25.43a1.704 1.704 0 0 1-1.706-1.705c0-.943.763-1.705 1.705-1.705h25.445l-6.656-6.656a1.69 1.69 0 0 1 0-2.399 1.69 1.69 0 0 1 2.4 0l9.553 9.554c.333.332.485.762.485 1.206z"/></defs><g><g transform="translate(-650 -3855)"><use  xlink:href="#9rbfa"/></g></g></svg>